<svg version="1.1" id="Layer_1" xmlns="http://www.w3.org/2000/svg" xmlns:xlink="http://www.w3.org/1999/xlink" x="0px" y="0px"
	 width="100%" viewBox="0 0 1200 630" enable-background="new 0 0 1200 630" xml:space="preserve">
<path fill="#011B33" opacity="1.000000" stroke="none" 
	d="
M814.000000,631.000000 
	C542.666687,631.000000 271.833374,631.000000 1.000036,631.000000 
	C1.000024,421.000031 1.000024,211.000061 1.000012,1.000065 
	C400.999969,1.000043 800.999939,1.000043 1201.000000,1.000021 
	C1201.000000,210.999939 1201.000000,420.999878 1201.000000,630.999878 
	C1072.166626,631.000000 943.333313,631.000000 814.000000,631.000000 
M437.044586,359.446136 
	C427.206573,351.741333 417.707428,351.219238 408.719147,357.141144 
	C405.930267,356.193604 403.874634,354.906616 401.810303,354.892487 
	C391.064392,354.818756 391.102753,353.030731 391.150024,365.094360 
	C391.215912,381.903351 391.205536,398.712860 391.153534,415.521942 
	C391.116302,427.551697 390.845093,425.798431 401.629425,426.083466 
	C405.684692,426.190674 407.357178,425.001312 407.143921,420.717072 
	C406.835663,414.525238 407.065002,408.306641 407.065002,401.778839 
	C423.798126,410.193939 440.372009,403.615204 444.462891,387.142303 
	C446.965912,377.063354 445.291779,367.625671 437.044586,359.446136 
M517.917786,393.833527 
	C518.430664,395.413757 519.128967,396.960541 519.421143,398.580566 
	C520.252075,403.187012 522.834900,405.141022 527.488892,404.416260 
	C528.047729,404.329224 528.679810,404.712585 529.268555,404.875305 
	C527.308716,413.669830 523.976013,416.116119 518.059509,412.528046 
	C512.600281,409.217285 511.917267,411.847778 508.080536,417.527405 
	C505.260315,421.702332 509.023132,423.211365 511.614227,424.673279 
	C524.421997,431.899628 538.728638,426.419586 543.368896,412.332581 
	C548.358826,397.184021 553.025696,381.927795 557.722351,366.684265 
	C561.867981,353.229065 562.373352,355.024536 549.097839,354.695557 
	C544.908752,354.591736 543.182434,356.160187 542.250610,360.014313 
	C540.337463,367.927521 538.082886,375.758820 535.921936,383.610931 
	C535.489136,385.183685 534.847229,386.698914 534.301758,388.240662 
	C533.815125,388.192200 533.328491,388.143738 532.841858,388.095245 
	C530.618774,380.689941 528.456482,373.265686 526.159363,365.883392 
	C521.973022,352.429962 525.740356,355.070770 510.882141,354.823456 
	C505.906036,354.740662 505.265137,355.690918 506.824799,360.447784 
	C510.396423,371.340637 514.061951,382.202728 517.917786,393.833527 
M677.066650,405.695709 
	C680.622986,404.434814 684.179260,403.173920 686.826416,402.235352 
	C688.730774,403.066833 690.161438,404.077698 691.696045,404.273346 
	C694.152161,404.586487 696.681641,404.264984 699.171875,404.384247 
	C702.160400,404.527435 703.307739,403.264771 703.287842,400.255646 
	C703.196655,386.445648 703.276978,372.634552 703.193176,358.824463 
	C703.185974,357.626984 702.780823,356.025208 701.955139,355.318512 
	C699.797729,353.472015 689.042419,355.196228 687.168945,356.561523 
	C682.157959,355.203461 676.977661,353.240021 671.988037,353.642181 
	C658.045654,354.765961 648.395752,366.893219 649.292969,380.939728 
	C650.258362,396.054016 660.975769,405.950470 677.066650,405.695709 
M498.890686,354.795532 
	C494.769104,355.576904 489.795044,352.632874 486.631500,357.600861 
	C476.017120,349.471588 461.910950,354.027374 455.221222,361.816650 
	C446.661804,371.782806 446.739777,387.651062 455.493347,397.562531 
	C463.578491,406.717163 476.272491,408.342743 486.623108,401.466003 
	C489.639191,406.621735 494.623535,403.697235 498.761993,404.318329 
	C501.633759,404.749359 502.959045,403.326447 502.940094,400.279572 
	C502.854309,386.476776 502.991364,372.671661 502.765350,358.872009 
	C502.742920,357.501801 500.800781,356.163025 498.890686,354.795532 
M762.488525,402.573822 
	C765.917725,403.173187 769.335205,403.853973 772.779236,404.350098 
	C776.594666,404.899719 778.238281,403.322113 778.008057,399.294434 
	C777.728882,394.410309 777.941772,389.498047 777.941772,384.597931 
	C778.357300,384.409058 778.772827,384.220184 779.188354,384.031281 
	C780.289978,385.011597 781.595276,385.841553 782.452026,387.002533 
	C784.424988,389.675995 786.654358,392.308868 787.932373,395.318024 
	C791.466309,403.639221 797.858826,405.685669 806.016235,404.329498 
	C807.536316,404.076813 809.612122,403.680847 810.238770,402.635864 
	C810.745361,401.791077 809.740601,399.679230 808.918518,398.457794 
	C804.016968,391.175232 798.973755,383.988098 794.027222,376.839783 
	C798.561951,370.954681 802.921631,365.488098 807.056335,359.856354 
	C809.404053,356.658569 808.524109,355.181793 804.711365,354.763092 
	C796.948059,353.910522 790.255310,354.901062 786.625305,363.165283 
	C785.514893,365.693359 783.461182,367.840576 781.662659,370.016052 
	C780.965881,370.858917 779.779297,371.296906 777.941406,372.484253 
	C777.941406,361.865509 777.941284,352.422791 777.941406,342.980103 
	C777.941528,332.805054 777.943665,332.908539 767.728149,333.111603 
	C763.748230,333.190674 762.125977,334.626953 762.157715,338.777618 
	C762.318054,359.760162 762.259644,380.744385 762.488525,402.573822 
M563.593872,206.820557 
	C562.927490,206.820526 562.261169,206.819778 561.594788,206.820541 
	C553.362732,206.829803 552.002319,208.174545 551.998169,216.306168 
	C551.993958,224.576401 553.365967,225.989120 561.448364,225.990112 
	C588.103088,225.993347 614.757812,225.997971 641.412537,225.986832 
	C648.479126,225.983871 649.999451,224.268326 650.001709,216.441742 
	C650.004028,208.423294 648.625305,206.828674 641.536377,206.825226 
	C615.881226,206.812714 590.226013,206.820358 563.593872,206.820557 
M569.514221,180.994217 
	C566.016296,180.996185 562.512573,180.872086 559.021912,181.032257 
	C554.715088,181.229858 552.317566,183.641068 552.026917,187.944901 
	C551.881348,190.100235 551.843628,192.288971 552.043701,194.435883 
	C552.419373,198.466309 554.506958,200.836288 558.818481,200.834091 
	C585.302795,200.820587 611.787109,200.834335 638.271423,200.815613 
	C642.328491,200.812744 644.411377,198.696198 644.489929,194.637848 
	C644.518982,193.139236 644.514343,191.639755 644.509277,190.140717 
	C644.483948,182.665115 642.864868,181.003448 635.470947,180.998871 
	C613.817078,180.985458 592.163269,180.994171 569.514221,180.994217 
M585.172791,372.647491 
	C584.033630,372.409821 582.753113,372.422791 581.787170,371.877930 
	C580.186951,370.975342 578.789307,369.713684 577.306335,368.603302 
	C579.060913,367.658020 580.974915,365.715118 582.538452,365.965057 
	C586.368958,366.577393 590.100708,368.040070 593.753784,369.464325 
	C597.424988,370.895630 600.944885,369.132935 603.511963,364.200012 
	C605.328430,360.709381 602.669556,359.306610 600.408081,358.001312 
	C590.706238,352.401764 580.579834,351.461945 570.317871,356.194672 
	C564.130249,359.048340 560.909363,364.946716 561.457581,371.103638 
	C562.037720,377.618225 565.768005,382.017487 572.817139,384.036499 
	C576.805359,385.178833 580.983704,385.686188 584.924438,386.952576 
	C586.681519,387.517181 588.064087,389.247131 589.616699,390.448151 
	C587.697266,391.484253 585.525146,393.680725 583.907959,393.328644 
	C579.831848,392.441193 575.889099,390.639465 572.114563,388.759186 
	C568.771667,387.093933 564.821472,388.241272 561.499084,392.454010 
	C559.470947,395.025635 560.574280,397.074432 562.528748,398.997101 
	C571.143494,407.471558 590.997620,408.216675 600.187744,400.413574 
	C608.952271,392.971832 607.163147,380.049866 596.568176,375.602661 
	C593.241882,374.206482 589.534851,373.717194 585.172791,372.647491 
M639.072876,251.148834 
	C642.859009,250.992722 644.313843,248.766754 644.314819,245.247513 
	C644.315125,244.247772 644.323120,243.248016 644.325073,242.248276 
	C644.344482,232.227585 644.106079,231.992706 633.867371,231.992416 
	C609.539856,231.991745 585.212341,231.986847 560.884827,231.995758 
	C553.551270,231.998444 552.015259,233.615784 551.998169,241.244293 
	C551.979675,249.539856 553.374451,251.158875 560.664368,251.161438 
	C586.491516,251.170502 612.318665,251.162979 639.072876,251.148834 
M723.959167,377.911194 
	C726.349365,368.124207 735.878784,364.329498 742.708862,370.929688 
	C748.745544,376.763092 748.822388,374.957001 754.137878,371.010925 
	C758.870056,367.497864 758.960388,366.212189 755.155457,361.922333 
	C745.304504,350.815918 726.575989,350.359589 715.702026,360.960907 
	C705.400024,371.004639 705.400146,388.140747 715.702271,398.163025 
	C726.625122,408.789185 745.265137,408.366028 755.133667,397.216949 
	C757.112854,394.980988 759.650330,392.492157 756.110291,389.662628 
	C748.656372,383.704620 747.982300,382.726410 744.241272,386.937866 
	C740.518738,391.128540 735.892029,392.415161 730.726074,390.336365 
	C725.644897,388.291718 723.681702,384.068970 723.959167,377.911194 
M607.749939,363.992981 
	C607.678772,370.424988 613.260071,366.727753 616.138916,368.617615 
	C616.138916,374.439972 616.268372,380.404907 616.104980,386.361847 
	C615.916992,393.217682 617.056396,399.505371 623.688354,403.030487 
	C630.822754,406.822693 638.160767,406.291809 645.189453,402.587341 
	C647.820740,401.200470 650.467285,399.431305 648.602966,395.529663 
	C645.618042,389.283020 644.087097,388.336456 639.244812,390.190308 
	C634.929260,391.842529 632.202759,390.644379 632.039124,386.602295 
	C631.792603,380.513428 631.974915,374.407196 631.974915,367.970306 
	C635.934021,367.970306 639.403137,367.806335 642.849976,368.013367 
	C646.817871,368.251709 648.357666,366.514709 647.983521,362.692108 
	C647.870605,361.538696 647.888428,360.358856 647.980103,359.201721 
	C648.234375,355.993713 646.812256,354.648071 643.598633,354.763397 
	C639.828613,354.898682 636.049927,354.795044 631.946228,354.795044 
	C631.946228,353.005981 631.964905,351.694305 631.943298,350.383301 
	C631.745544,338.408844 634.161743,339.901184 620.370667,339.721436 
	C617.037537,339.677979 615.977295,341.182709 616.106079,344.279877 
	C616.247681,347.687622 616.138306,351.105774 616.138306,354.792664 
	C614.654602,354.792664 613.828247,354.888824 613.031311,354.776581 
	C608.804138,354.181244 607.204529,356.080688 607.729126,360.167206 
	C607.855164,361.149078 607.747681,362.160950 607.749939,363.992981 
M585.499451,276.939178 
	C590.161804,276.939301 594.824158,276.950592 599.486450,276.937012 
	C607.175537,276.914551 608.771973,275.295227 608.786865,267.543976 
	C608.788757,266.544891 608.802856,265.545532 608.784180,264.546814 
	C608.677368,258.817688 607.071594,257.181610 601.266907,257.165649 
	C587.613037,257.128082 573.958923,257.136871 560.304932,257.160767 
	C553.801453,257.172180 552.031250,259.095551 551.989929,266.023407 
	C551.938904,274.574249 553.679626,276.864105 560.522095,276.923401 
	C568.514038,276.992645 576.507141,276.939301 585.499451,276.939178 
z"/>
<path fill="#FAFBFB" opacity="1.000000" stroke="none" 
	d="
M437.303772,359.690552 
	C445.291779,367.625671 446.965912,377.063354 444.462891,387.142303 
	C440.372009,403.615204 423.798126,410.193939 407.065002,401.778839 
	C407.065002,408.306641 406.835663,414.525238 407.143921,420.717072 
	C407.357178,425.001312 405.684692,426.190674 401.629425,426.083466 
	C390.845093,425.798431 391.116302,427.551697 391.153534,415.521942 
	C391.205536,398.712860 391.215912,381.903351 391.150024,365.094360 
	C391.102753,353.030731 391.064392,354.818756 401.810303,354.892487 
	C403.874634,354.906616 405.930267,356.193604 408.719147,357.141144 
	C417.707428,351.219238 427.206573,351.741333 437.303772,359.690552 
M429.593597,381.871796 
	C430.049194,374.145050 426.346283,368.791016 419.983459,367.976532 
	C413.961792,367.205658 408.335083,371.267731 407.167664,377.228516 
	C405.991455,383.234131 409.596619,389.382874 415.200592,390.928925 
	C421.575897,392.687836 426.705444,389.679901 429.593597,381.871796 
z"/>
<path fill="#FAFBFB" opacity="1.000000" stroke="none" 
	d="
M517.803589,393.455414 
	C514.061951,382.202728 510.396423,371.340637 506.824799,360.447784 
	C505.265137,355.690918 505.906036,354.740662 510.882141,354.823456 
	C525.740356,355.070770 521.973022,352.429962 526.159363,365.883392 
	C528.456482,373.265686 530.618774,380.689941 532.841858,388.095245 
	C533.328491,388.143738 533.815125,388.192200 534.301758,388.240662 
	C534.847229,386.698914 535.489136,385.183685 535.921936,383.610931 
	C538.082886,375.758820 540.337463,367.927521 542.250610,360.014313 
	C543.182434,356.160187 544.908752,354.591736 549.097839,354.695557 
	C562.373352,355.024536 561.867981,353.229065 557.722351,366.684265 
	C553.025696,381.927795 548.358826,397.184021 543.368896,412.332581 
	C538.728638,426.419586 524.421997,431.899628 511.614227,424.673279 
	C509.023132,423.211365 505.260315,421.702332 508.080536,417.527405 
	C511.917267,411.847778 512.600281,409.217285 518.059509,412.528046 
	C523.976013,416.116119 527.308716,413.669830 529.268555,404.875305 
	C528.679810,404.712585 528.047729,404.329224 527.488892,404.416260 
	C522.834900,405.141022 520.252075,403.187012 519.421143,398.580566 
	C519.128967,396.960541 518.430664,395.413757 517.803589,393.455414 
z"/>
<path fill="#FBFCFC" opacity="1.000000" stroke="none" 
	d="
M676.636230,405.743408 
	C660.975769,405.950470 650.258362,396.054016 649.292969,380.939728 
	C648.395752,366.893219 658.045654,354.765961 671.988037,353.642181 
	C676.977661,353.240021 682.157959,355.203461 687.168945,356.561523 
	C689.042419,355.196228 699.797729,353.472015 701.955139,355.318512 
	C702.780823,356.025208 703.185974,357.626984 703.193176,358.824463 
	C703.276978,372.634552 703.196655,386.445648 703.287842,400.255646 
	C703.307739,403.264771 702.160400,404.527435 699.171875,404.384247 
	C696.681641,404.264984 694.152161,404.586487 691.696045,404.273346 
	C690.161438,404.077698 688.730774,403.066833 686.826416,402.235352 
	C684.179260,403.173920 680.622986,404.434814 676.636230,405.743408 
M678.163513,391.187775 
	C684.763245,389.328125 688.369080,384.643463 687.834595,378.623077 
	C687.316345,372.785156 682.785034,368.222717 677.195679,367.911163 
	C670.889709,367.559662 665.624023,372.257324 665.126160,378.678619 
	C664.569702,385.855591 669.346436,390.786469 678.163513,391.187775 
z"/>
<path fill="#FAFBFB" opacity="1.000000" stroke="none" 
	d="
M499.320129,354.802612 
	C500.800781,356.163025 502.742920,357.501801 502.765350,358.872009 
	C502.991364,372.671661 502.854309,386.476776 502.940094,400.279572 
	C502.959045,403.326447 501.633759,404.749359 498.761993,404.318329 
	C494.623535,403.697235 489.639191,406.621735 486.623108,401.466003 
	C476.272491,408.342743 463.578491,406.717163 455.493347,397.562531 
	C446.739777,387.651062 446.661804,371.782806 455.221222,361.816650 
	C461.910950,354.027374 476.017120,349.471588 486.631714,357.601807 
	C489.795044,352.632874 494.769104,355.576904 499.320129,354.802612 
M472.421448,368.448944 
	C466.217590,371.673767 463.879913,375.945648 464.968445,382.068604 
	C465.808472,386.793793 469.617554,390.525024 474.314789,391.160675 
	C479.054169,391.802032 482.901947,390.179230 485.435944,386.141144 
	C488.027710,382.010956 488.117493,377.531647 485.627960,373.374542 
	C482.848511,368.733368 478.488922,367.157654 472.421448,368.448944 
z"/>
<path fill="#F9FAFA" opacity="1.000000" stroke="none" 
	d="
M762.383179,402.150909 
	C762.259644,380.744385 762.318054,359.760162 762.157715,338.777618 
	C762.125977,334.626953 763.748230,333.190674 767.728149,333.111603 
	C777.943665,332.908539 777.941528,332.805054 777.941406,342.980103 
	C777.941284,352.422791 777.941406,361.865509 777.941406,372.484253 
	C779.779297,371.296906 780.965881,370.858917 781.662659,370.016052 
	C783.461182,367.840576 785.514893,365.693359 786.625305,363.165283 
	C790.255310,354.901062 796.948059,353.910522 804.711365,354.763092 
	C808.524109,355.181793 809.404053,356.658569 807.056335,359.856354 
	C802.921631,365.488098 798.561951,370.954681 794.027222,376.839783 
	C798.973755,383.988098 804.016968,391.175232 808.918518,398.457794 
	C809.740601,399.679230 810.745361,401.791077 810.238770,402.635864 
	C809.612122,403.680847 807.536316,404.076813 806.016235,404.329498 
	C797.858826,405.685669 791.466309,403.639221 787.932373,395.318024 
	C786.654358,392.308868 784.424988,389.675995 782.452026,387.002533 
	C781.595276,385.841553 780.289978,385.011597 779.188354,384.031281 
	C778.772827,384.220184 778.357300,384.409058 777.941772,384.597931 
	C777.941772,389.498047 777.728882,394.410309 778.008057,399.294434 
	C778.238281,403.322113 776.594666,404.899719 772.779236,404.350098 
	C769.335205,403.853973 765.917725,403.173187 762.383179,402.150909 
z"/>
<path fill="#09A4DA" opacity="1.000000" stroke="none" 
	d="
M564.082397,206.820496 
	C590.226013,206.820358 615.881226,206.812714 641.536377,206.825226 
	C648.625305,206.828674 650.004028,208.423294 650.001709,216.441742 
	C649.999451,224.268326 648.479126,225.983871 641.412537,225.986832 
	C614.757812,225.997971 588.103088,225.993347 561.448364,225.990112 
	C553.365967,225.989120 551.993958,224.576401 551.998169,216.306168 
	C552.002319,208.174545 553.362732,206.829803 561.594788,206.820541 
	C562.261169,206.819778 562.927490,206.820526 564.082397,206.820496 
z"/>
<path fill="#09A3D9" opacity="1.000000" stroke="none" 
	d="
M570.011841,180.994217 
	C592.163269,180.994171 613.817078,180.985458 635.470947,180.998871 
	C642.864868,181.003448 644.483948,182.665115 644.509277,190.140717 
	C644.514343,191.639755 644.518982,193.139236 644.489929,194.637848 
	C644.411377,198.696198 642.328491,200.812744 638.271423,200.815613 
	C611.787109,200.834335 585.302795,200.820587 558.818481,200.834091 
	C554.506958,200.836288 552.419373,198.466309 552.043701,194.435883 
	C551.843628,192.288971 551.881348,190.100235 552.026917,187.944901 
	C552.317566,183.641068 554.715088,181.229858 559.021912,181.032257 
	C562.512573,180.872086 566.016296,180.996185 570.011841,180.994217 
z"/>
<path fill="#F9F9FA" opacity="1.000000" stroke="none" 
	d="
M585.587463,372.730164 
	C589.534851,373.717194 593.241882,374.206482 596.568176,375.602661 
	C607.163147,380.049866 608.952271,392.971832 600.187744,400.413574 
	C590.997620,408.216675 571.143494,407.471558 562.528748,398.997101 
	C560.574280,397.074432 559.470947,395.025635 561.499084,392.454010 
	C564.821472,388.241272 568.771667,387.093933 572.114563,388.759186 
	C575.889099,390.639465 579.831848,392.441193 583.907959,393.328644 
	C585.525146,393.680725 587.697266,391.484253 589.616699,390.448181 
	C588.064087,389.247131 586.681519,387.517181 584.924438,386.952576 
	C580.983704,385.686188 576.805359,385.178833 572.817139,384.036499 
	C565.768005,382.017487 562.037720,377.618225 561.457581,371.103638 
	C560.909363,364.946716 564.130249,359.048340 570.317871,356.194672 
	C580.579834,351.461945 590.706238,352.401764 600.408081,358.001312 
	C602.669556,359.306610 605.328430,360.709381 603.511963,364.200012 
	C600.944885,369.132935 597.424988,370.895630 593.753784,369.464325 
	C590.100708,368.040070 586.368958,366.577393 582.538452,365.965057 
	C580.974915,365.715118 579.060913,367.658020 577.306335,368.603302 
	C578.789307,369.713684 580.186951,370.975342 581.787170,371.877930 
	C582.753113,372.422791 584.033630,372.409821 585.587463,372.730164 
z"/>
<path fill="#09A4DA" opacity="1.000000" stroke="none" 
	d="
M638.609375,251.155304 
	C612.318665,251.162979 586.491516,251.170502 560.664368,251.161438 
	C553.374451,251.158875 551.979675,249.539856 551.998169,241.244293 
	C552.015259,233.615784 553.551270,231.998444 560.884827,231.995758 
	C585.212341,231.986847 609.539856,231.991745 633.867371,231.992416 
	C644.106079,231.992706 644.344482,232.227585 644.325073,242.248276 
	C644.323120,243.248016 644.315125,244.247772 644.314819,245.247513 
	C644.313843,248.766754 642.859009,250.992722 638.609375,251.155304 
z"/>
<path fill="#F9FAFA" opacity="1.000000" stroke="none" 
	d="
M723.931885,378.320770 
	C723.681702,384.068970 725.644897,388.291718 730.726074,390.336365 
	C735.892029,392.415161 740.518738,391.128540 744.241272,386.937866 
	C747.982300,382.726410 748.656372,383.704620 756.110291,389.662628 
	C759.650330,392.492157 757.112854,394.980988 755.133667,397.216949 
	C745.265137,408.366028 726.625122,408.789185 715.702271,398.163025 
	C705.400146,388.140747 705.400024,371.004639 715.702026,360.960907 
	C726.575989,350.359589 745.304504,350.815918 755.155457,361.922333 
	C758.960388,366.212189 758.870056,367.497864 754.137878,371.010925 
	C748.822388,374.957001 748.745544,376.763092 742.708862,370.929688 
	C735.878784,364.329498 726.349365,368.124207 723.931885,378.320770 
z"/>
<path fill="#FAFBFB" opacity="1.000000" stroke="none" 
	d="
M607.748779,363.575989 
	C607.747681,362.160950 607.855164,361.149078 607.729126,360.167206 
	C607.204529,356.080688 608.804138,354.181244 613.031311,354.776581 
	C613.828247,354.888824 614.654602,354.792664 616.138306,354.792664 
	C616.138306,351.105774 616.247681,347.687622 616.106079,344.279877 
	C615.977295,341.182709 617.037537,339.677979 620.370667,339.721436 
	C634.161743,339.901184 631.745544,338.408844 631.943298,350.383301 
	C631.964905,351.694305 631.946228,353.005981 631.946228,354.795044 
	C636.049927,354.795044 639.828613,354.898682 643.598633,354.763397 
	C646.812256,354.648071 648.234375,355.993713 647.980103,359.201721 
	C647.888428,360.358856 647.870605,361.538696 647.983521,362.692108 
	C648.357666,366.514709 646.817871,368.251709 642.849976,368.013367 
	C639.403137,367.806335 635.934021,367.970306 631.974915,367.970306 
	C631.974915,374.407196 631.792603,380.513428 632.039124,386.602295 
	C632.202759,390.644379 634.929260,391.842529 639.244812,390.190308 
	C644.087097,388.336456 645.618042,389.283020 648.602966,395.529663 
	C650.467285,399.431305 647.820740,401.200470 645.189453,402.587341 
	C638.160767,406.291809 630.822754,406.822693 623.688354,403.030487 
	C617.056396,399.505371 615.916992,393.217682 616.104980,386.361847 
	C616.268372,380.404907 616.138916,374.439972 616.138916,368.617615 
	C613.260071,366.727753 607.678772,370.424988 607.748779,363.575989 
z"/>
<path fill="#09A2D7" opacity="1.000000" stroke="none" 
	d="
M584.999573,276.939148 
	C576.507141,276.939301 568.514038,276.992645 560.522095,276.923401 
	C553.679626,276.864105 551.938904,274.574249 551.989929,266.023407 
	C552.031250,259.095551 553.801453,257.172180 560.304932,257.160767 
	C573.958923,257.136871 587.613037,257.128082 601.266907,257.165649 
	C607.071594,257.181610 608.677368,258.817688 608.784180,264.546814 
	C608.802856,265.545532 608.788757,266.544891 608.786865,267.543976 
	C608.771973,275.295227 607.175537,276.914551 599.486450,276.937012 
	C594.824158,276.950592 590.161804,276.939301 584.999573,276.939148 
z"/>
<path fill="#072038" opacity="1.000000" stroke="none" 
	d="
M429.478333,382.247925 
	C426.705444,389.679901 421.575897,392.687836 415.200592,390.928925 
	C409.596619,389.382874 405.991455,383.234131 407.167664,377.228516 
	C408.335083,371.267731 413.961792,367.205658 419.983459,367.976532 
	C426.346283,368.791016 430.049194,374.145050 429.478333,382.247925 
z"/>
<path fill="#072038" opacity="1.000000" stroke="none" 
	d="
M677.747314,391.232513 
	C669.346436,390.786469 664.569702,385.855591 665.126160,378.678619 
	C665.624023,372.257324 670.889709,367.559662 677.195679,367.911163 
	C682.785034,368.222717 687.316345,372.785156 687.834595,378.623077 
	C688.369080,384.643463 684.763245,389.328125 677.747314,391.232513 
z"/>
<path fill="#051F36" opacity="1.000000" stroke="none" 
	d="
M472.806274,368.319427 
	C478.488922,367.157654 482.848511,368.733368 485.627960,373.374542 
	C488.117493,377.531647 488.027710,382.010956 485.435944,386.141144 
	C482.901947,390.179230 479.054169,391.802032 474.314789,391.160675 
	C469.617554,390.525024 465.808472,386.793793 464.968445,382.068604 
	C463.879913,375.945648 466.217590,371.673767 472.806274,368.319427 
z"/>
</svg>